<svg width="136" height="24" viewBox="0 0 136 24" fill="none" xmlns="http://www.w3.org/2000/svg">
<path opacity="0.2" d="M12.4135 17.8812L17.1419 20.8769C17.7463 21.2598 18.4967 20.6903 18.3173 19.9847L16.9512 14.6108C16.9127 14.4611 16.9173 14.3036 16.9643 14.1564C17.0114 14.0092 17.0991 13.8783 17.2172 13.7787L21.4573 10.2496C22.0144 9.78588 21.7269 8.86126 21.0111 8.81481L15.4738 8.45544C15.3247 8.44479 15.1816 8.39198 15.0613 8.30317C14.941 8.21437 14.8484 8.09321 14.7943 7.95382L12.7292 2.75323C12.673 2.60528 12.5732 2.4779 12.443 2.38802C12.3127 2.29814 12.1582 2.25 12 2.25C11.8418 2.25 11.6873 2.29814 11.557 2.38802C11.4268 2.4779 11.327 2.60528 11.2708 2.75323L9.20568 7.95382C9.15157 8.09321 9.05897 8.21437 8.93868 8.30317C8.81838 8.39198 8.67533 8.44479 8.52618 8.45544L2.98894 8.81481C2.27315 8.86126 1.9856 9.78588 2.54272 10.2496L6.78278 13.7787C6.90095 13.8783 6.9886 14.0092 7.03566 14.1564C7.08272 14.3036 7.08727 14.4611 7.0488 14.6108L5.78188 19.5945C5.56667 20.4412 6.46715 21.1246 7.19243 20.6651L11.5865 17.8812C11.71 17.8025 11.8535 17.7607 12 17.7607C12.1465 17.7607 12.29 17.8025 12.4135 17.8812Z" fill="#145AFF"/>
<path d="M12.4135 17.8812L17.1419 20.8769C17.7463 21.2598 18.4967 20.6903 18.3173 19.9847L16.9512 14.6108C16.9127 14.4611 16.9173 14.3036 16.9643 14.1564C17.0114 14.0092 17.0991 13.8783 17.2172 13.7787L21.4573 10.2496C22.0144 9.78588 21.7269 8.86126 21.0111 8.81481L15.4738 8.45544C15.3247 8.44479 15.1816 8.39198 15.0613 8.30317C14.941 8.21437 14.8484 8.09321 14.7943 7.95382L12.7292 2.75323C12.673 2.60528 12.5732 2.4779 12.443 2.38802C12.3127 2.29814 12.1582 2.25 12 2.25C11.8418 2.25 11.6873 2.29814 11.557 2.38802C11.4268 2.4779 11.327 2.60528 11.2708 2.75323L9.20568 7.95382C9.15157 8.09321 9.05897 8.21437 8.93868 8.30317C8.81838 8.39198 8.67533 8.44479 8.52618 8.45544L2.98894 8.81481C2.27315 8.86126 1.9856 9.78588 2.54272 10.2496L6.78278 13.7787C6.90095 13.8783 6.9886 14.0092 7.03566 14.1564C7.08272 14.3036 7.08727 14.4611 7.0488 14.6108L5.78188 19.5945C5.56667 20.4412 6.46715 21.1246 7.19243 20.6651L11.5865 17.8812C11.71 17.8025 11.8535 17.7607 12 17.7607C12.1465 17.7607 12.29 17.8025 12.4135 17.8812V17.8812Z" stroke="#145AFF" stroke-width="1.5" stroke-linecap="round" stroke-linejoin="round"/>
<path opacity="0.2" d="M40.4135 17.8812L45.1419 20.8769C45.7463 21.2598 46.4967 20.6903 46.3173 19.9847L44.9512 14.6108C44.9127 14.4611 44.9173 14.3036 44.9643 14.1564C45.0114 14.0092 45.0991 13.8783 45.2172 13.7787L49.4573 10.2496C50.0144 9.78588 49.7269 8.86126 49.0111 8.81481L43.4738 8.45544C43.3247 8.44479 43.1816 8.39198 43.0613 8.30317C42.941 8.21437 42.8484 8.09321 42.7943 7.95382L40.7292 2.75323C40.673 2.60528 40.5732 2.4779 40.443 2.38802C40.3127 2.29814 40.1582 2.25 40 2.25C39.8418 2.25 39.6873 2.29814 39.557 2.38802C39.4268 2.4779 39.327 2.60528 39.2708 2.75323L37.2057 7.95382C37.1516 8.09321 37.059 8.21437 36.9387 8.30317C36.8184 8.39198 36.6753 8.44479 36.5262 8.45544L30.9889 8.81481C30.2732 8.86126 29.9856 9.78588 30.5427 10.2496L34.7828 13.7787C34.9009 13.8783 34.9886 14.0092 35.0357 14.1564C35.0827 14.3036 35.0873 14.4611 35.0488 14.6108L33.7819 19.5945C33.5667 20.4412 34.4672 21.1246 35.1924 20.6651L39.5865 17.8812C39.71 17.8025 39.8535 17.7607 40 17.7607C40.1465 17.7607 40.29 17.8025 40.4135 17.8812Z" fill="#145AFF"/>
<path d="M40.4135 17.8812L45.1419 20.8769C45.7463 21.2598 46.4967 20.6903 46.3173 19.9847L44.9512 14.6108C44.9127 14.4611 44.9173 14.3036 44.9643 14.1564C45.0114 14.0092 45.0991 13.8783 45.2172 13.7787L49.4573 10.2496C50.0144 9.78588 49.7269 8.86126 49.0111 8.81481L43.4738 8.45544C43.3247 8.44479 43.1816 8.39198 43.0613 8.30317C42.941 8.21437 42.8484 8.09321 42.7943 7.95382L40.7292 2.75323C40.673 2.60528 40.5732 2.4779 40.443 2.38802C40.3127 2.29814 40.1582 2.25 40 2.25C39.8418 2.25 39.6873 2.29814 39.557 2.38802C39.4268 2.4779 39.327 2.60528 39.2708 2.75323L37.2057 7.95382C37.1516 8.09321 37.059 8.21437 36.9387 8.30317C36.8184 8.39198 36.6753 8.44479 36.5262 8.45544L30.9889 8.81481C30.2732 8.86126 29.9856 9.78588 30.5427 10.2496L34.7828 13.7787C34.9009 13.8783 34.9886 14.0092 35.0357 14.1564C35.0827 14.3036 35.0873 14.4611 35.0488 14.6108L33.7819 19.5945C33.5667 20.4412 34.4672 21.1246 35.1924 20.6651L39.5865 17.8812C39.71 17.8025 39.8535 17.7607 40 17.7607C40.1465 17.7607 40.29 17.8025 40.4135 17.8812V17.8812Z" stroke="#145AFF" stroke-width="1.5" stroke-linecap="round" stroke-linejoin="round"/>
<path opacity="0.2" d="M68.4135 17.8812L73.1419 20.8769C73.7463 21.2598 74.4967 20.6903 74.3173 19.9847L72.9512 14.6108C72.9127 14.4611 72.9173 14.3036 72.9643 14.1564C73.0114 14.0092 73.0991 13.8783 73.2172 13.7787L77.4573 10.2496C78.0144 9.78588 77.7269 8.86126 77.0111 8.81481L71.4738 8.45544C71.3247 8.44479 71.1816 8.39198 71.0613 8.30317C70.941 8.21437 70.8484 8.09321 70.7943 7.95382L68.7292 2.75323C68.673 2.60528 68.5732 2.4779 68.443 2.38802C68.3127 2.29814 68.1582 2.25 68 2.25C67.8418 2.25 67.6873 2.29814 67.557 2.38802C67.4268 2.4779 67.327 2.60528 67.2708 2.75323L65.2057 7.95382C65.1516 8.09321 65.059 8.21437 64.9387 8.30317C64.8184 8.39198 64.6753 8.44479 64.5262 8.45544L58.9889 8.81481C58.2732 8.86126 57.9856 9.78588 58.5427 10.2496L62.7828 13.7787C62.9009 13.8783 62.9886 14.0092 63.0357 14.1564C63.0827 14.3036 63.0873 14.4611 63.0488 14.6108L61.7819 19.5945C61.5667 20.4412 62.4672 21.1246 63.1924 20.6651L67.5865 17.8812C67.71 17.8025 67.8535 17.7607 68 17.7607C68.1465 17.7607 68.29 17.8025 68.4135 17.8812Z" fill="#145AFF"/>
<path d="M68.4135 17.8812L73.1419 20.8769C73.7463 21.2598 74.4967 20.6903 74.3173 19.9847L72.9512 14.6108C72.9127 14.4611 72.9173 14.3036 72.9643 14.1564C73.0114 14.0092 73.0991 13.8783 73.2172 13.7787L77.4573 10.2496C78.0144 9.78588 77.7269 8.86126 77.0111 8.81481L71.4738 8.45544C71.3247 8.44479 71.1816 8.39198 71.0613 8.30317C70.941 8.21437 70.8484 8.09321 70.7943 7.95382L68.7292 2.75323C68.673 2.60528 68.5732 2.4779 68.443 2.38802C68.3127 2.29814 68.1582 2.25 68 2.25C67.8418 2.25 67.6873 2.29814 67.557 2.38802C67.4268 2.4779 67.327 2.60528 67.2708 2.75323L65.2057 7.95382C65.1516 8.09321 65.059 8.21437 64.9387 8.30317C64.8184 8.39198 64.6753 8.44479 64.5262 8.45544L58.9889 8.81481C58.2732 8.86126 57.9856 9.78588 58.5427 10.2496L62.7828 13.7787C62.9009 13.8783 62.9886 14.0092 63.0357 14.1564C63.0827 14.3036 63.0873 14.4611 63.0488 14.6108L61.7819 19.5945C61.5667 20.4412 62.4672 21.1246 63.1924 20.6651L67.5865 17.8812C67.71 17.8025 67.8535 17.7607 68 17.7607C68.1465 17.7607 68.29 17.8025 68.4135 17.8812V17.8812Z" stroke="#145AFF" stroke-width="1.5" stroke-linecap="round" stroke-linejoin="round"/>
<path opacity="0.2" d="M96.4135 17.8812L101.142 20.8769C101.746 21.2598 102.497 20.6903 102.317 19.9847L100.951 14.6108C100.913 14.4611 100.917 14.3036 100.964 14.1564C101.011 14.0092 101.099 13.8783 101.217 13.7787L105.457 10.2496C106.014 9.78588 105.727 8.86126 105.011 8.81481L99.4738 8.45544C99.3247 8.44479 99.1816 8.39198 99.0613 8.30317C98.941 8.21437 98.8484 8.09321 98.7943 7.95382L96.7292 2.75323C96.673 2.60528 96.5732 2.4779 96.443 2.38802C96.3127 2.29814 96.1582 2.25 96 2.25C95.8418 2.25 95.6873 2.29814 95.557 2.38802C95.4268 2.4779 95.327 2.60528 95.2708 2.75323L93.2057 7.95382C93.1516 8.09321 93.059 8.21437 92.9387 8.30317C92.8184 8.39198 92.6753 8.44479 92.5262 8.45544L86.9889 8.81481C86.2732 8.86126 85.9856 9.78588 86.5427 10.2496L90.7828 13.7787C90.9009 13.8783 90.9886 14.0092 91.0357 14.1564C91.0827 14.3036 91.0873 14.4611 91.0488 14.6108L89.7819 19.5945C89.5667 20.4412 90.4672 21.1246 91.1924 20.6651L95.5865 17.8812C95.71 17.8025 95.8535 17.7607 96 17.7607C96.1465 17.7607 96.29 17.8025 96.4135 17.8812Z" fill="#145AFF"/>
<path d="M96.4135 17.8812L101.142 20.8769C101.746 21.2598 102.497 20.6903 102.317 19.9847L100.951 14.6108C100.913 14.4611 100.917 14.3036 100.964 14.1564C101.011 14.0092 101.099 13.8783 101.217 13.7787L105.457 10.2496C106.014 9.78588 105.727 8.86126 105.011 8.81481L99.4738 8.45544C99.3247 8.44479 99.1816 8.39198 99.0613 8.30317C98.941 8.21437 98.8484 8.09321 98.7943 7.95382L96.7292 2.75323C96.673 2.60528 96.5732 2.4779 96.443 2.38802C96.3127 2.29814 96.1582 2.25 96 2.25C95.8418 2.25 95.6873 2.29814 95.557 2.38802C95.4268 2.4779 95.327 2.60528 95.2708 2.75323L93.2057 7.95382C93.1516 8.09321 93.059 8.21437 92.9387 8.30317C92.8184 8.39198 92.6753 8.44479 92.5262 8.45544L86.9889 8.81481C86.2732 8.86126 85.9856 9.78588 86.5427 10.2496L90.7828 13.7787C90.9009 13.8783 90.9886 14.0092 91.0357 14.1564C91.0827 14.3036 91.0873 14.4611 91.0488 14.6108L89.7819 19.5945C89.5667 20.4412 90.4672 21.1246 91.1924 20.6651L95.5865 17.8812C95.71 17.8025 95.8535 17.7607 96 17.7607C96.1465 17.7607 96.29 17.8025 96.4135 17.8812V17.8812Z" stroke="#145AFF" stroke-width="1.5" stroke-linecap="round" stroke-linejoin="round"/>
<path opacity="0.2" d="M124.414 17.8812L129.142 20.8769C129.746 21.2598 130.497 20.6903 130.317 19.9847L128.951 14.6108C128.913 14.4611 128.917 14.3036 128.964 14.1564C129.011 14.0092 129.099 13.8783 129.217 13.7787L133.457 10.2496C134.014 9.78588 133.727 8.86126 133.011 8.81481L127.474 8.45544C127.325 8.44479 127.182 8.39198 127.061 8.30317C126.941 8.21437 126.848 8.09321 126.794 7.95382L124.729 2.75323C124.673 2.60528 124.573 2.4779 124.443 2.38802C124.313 2.29814 124.158 2.25 124 2.25C123.842 2.25 123.687 2.29814 123.557 2.38802C123.427 2.4779 123.327 2.60528 123.271 2.75323L121.206 7.95382C121.152 8.09321 121.059 8.21437 120.939 8.30317C120.818 8.39198 120.675 8.44479 120.526 8.45544L114.989 8.81481C114.273 8.86126 113.986 9.78588 114.543 10.2496L118.783 13.7787C118.901 13.8783 118.989 14.0092 119.036 14.1564C119.083 14.3036 119.087 14.4611 119.049 14.6108L117.782 19.5945C117.567 20.4412 118.467 21.1246 119.192 20.6651L123.586 17.8812C123.71 17.8025 123.854 17.7607 124 17.7607C124.147 17.7607 124.29 17.8025 124.414 17.8812Z" fill="#145AFF"/>
<path d="M124.414 17.8812L129.142 20.8769C129.746 21.2598 130.497 20.6903 130.317 19.9847L128.951 14.6108C128.913 14.4611 128.917 14.3036 128.964 14.1564C129.011 14.0092 129.099 13.8783 129.217 13.7787L133.457 10.2496C134.014 9.78588 133.727 8.86126 133.011 8.81481L127.474 8.45544C127.325 8.44479 127.182 8.39198 127.061 8.30317C126.941 8.21437 126.848 8.09321 126.794 7.95382L124.729 2.75323C124.673 2.60528 124.573 2.4779 124.443 2.38802C124.313 2.29814 124.158 2.25 124 2.25C123.842 2.25 123.687 2.29814 123.557 2.38802C123.427 2.4779 123.327 2.60528 123.271 2.75323L121.206 7.95382C121.152 8.09321 121.059 8.21437 120.939 8.30317C120.818 8.39198 120.675 8.44479 120.526 8.45544L114.989 8.81481C114.273 8.86126 113.986 9.78588 114.543 10.2496L118.783 13.7787C118.901 13.8783 118.989 14.0092 119.036 14.1564C119.083 14.3036 119.087 14.4611 119.049 14.6108L117.782 19.5945C117.567 20.4412 118.467 21.1246 119.192 20.6651L123.586 17.8812C123.71 17.8025 123.854 17.7607 124 17.7607C124.147 17.7607 124.29 17.8025 124.414 17.8812V17.8812Z" stroke="#145AFF" stroke-width="1.5" stroke-linecap="round" stroke-linejoin="round"/>
</svg>
