<svg xmlns="http://www.w3.org/2000/svg" width="280.94" height="106.53" viewBox="0 0 280.94 106.53"><defs><style>.cls-1{isolation:isolate;}.cls-2{fill:#f2f3f3;mix-blend-mode:multiply;}.cls-3{fill:#fff;}.cls-4{fill:#ffcd5c;}.cls-5{fill:#fec251;}.cls-6{fill:#ffd480;}.cls-7{fill:#664837;}.cls-8{fill:#2b2526;}.cls-9{fill:#403f41;}.cls-10{fill:#58595c;}</style></defs><g class="cls-1"><g id="Layer_1" data-name="Layer 1"><path class="cls-2" d="M257.45,63.6V35.32a21.65,21.65,0,0,0-21.59-21.59H45.39a21.66,21.66,0,0,0-21.6,21.59V63.6a21.66,21.66,0,0,0,21.6,21.59H222.15c5.24,5.39,15.41,11.15,26.21,14.82a2.77,2.77,0,0,0,3.26-1.17,2.66,2.66,0,0,0,.11-2.63A54.47,54.47,0,0,1,247,82.1,21.56,21.56,0,0,0,257.45,63.6Z"/><path class="cls-3" d="M253.19,60.4V32.12a20,20,0,0,0-20-20H42.72a20,20,0,0,0-20,20V60.4a20,20,0,0,0,20,20H223.28a54.13,54.13,0,0,0,22.93,14.9,1.14,1.14,0,0,0,1.43-1.56c-1.58-3.11-4.76-7.77-5.13-15.66A20,20,0,0,0,253.19,60.4Z"/><circle class="cls-4" cx="199.26" cy="46.35" r="22.72" transform="translate(108.37 229.63) rotate(-76.72)"/><path class="cls-5" d="M211.14,27a22.72,22.72,0,0,1-31,31.6,22.72,22.72,0,1,0,31-31.6Z"/><path class="cls-6" d="M179.63,48.74a21.09,21.09,0,0,1,37.81-12.85,21.09,21.09,0,1,0-35,23.37A21.06,21.06,0,0,1,179.63,48.74Z"/><path class="cls-7" d="M190,51.12a.75.75,0,0,0-1.22.81,11.39,11.39,0,0,0,21.06.21.75.75,0,0,0-1.21-.82C205.25,54.54,198.19,59.13,190,51.12Z"/><path class="cls-8" d="M215.29,37.73l-9.22.76-.33,0c-.08,0-3.05.36-6.37.56h-.23c-3.31-.2-6.28-.55-6.37-.56l-.32,0-9.23-.76c-1.81,0-2.81.85-2.72,2.43,0,.06.65,3.66.65,3.66a7.75,7.75,0,0,0,1.2,3.36,4.15,4.15,0,0,0,1.6,1.33,4.28,4.28,0,0,0,1,.37,5.52,5.52,0,0,0,.92.09l1,0h3a6.47,6.47,0,0,0,2.84-.66,5.81,5.81,0,0,0,2.74-3.19,7,7,0,0,1,2.75-3,2,2,0,0,1,2.15,0A8.54,8.54,0,0,1,202,43.55a10.46,10.46,0,0,1,1,1.37c.34.52.55,1.15.9,1.68A4.48,4.48,0,0,0,205.17,48a6.3,6.3,0,0,0,3.09,1h3.38l1,0a5.64,5.64,0,0,0,.93-.09,4.64,4.64,0,0,0,1-.37,4.3,4.3,0,0,0,1.6-1.33,7.86,7.86,0,0,0,1.19-3.36l.66-3.66C218.11,38.58,217.11,37.69,215.29,37.73Z"/><path class="cls-9" d="M208.66,49h3l1,0a5.64,5.64,0,0,0,.93-.09,4.64,4.64,0,0,0,1-.37,4.3,4.3,0,0,0,1.6-1.33,7.86,7.86,0,0,0,1.19-3.36l.66-3.66a3.14,3.14,0,0,0,0-.62c-4.25,6.58-9.4,8.17-12.71,8.48a6.19,6.19,0,0,0,3,1Z"/><path class="cls-9" d="M184,48.51a4.28,4.28,0,0,0,1,.37,5.52,5.52,0,0,0,.92.09l1,0h3a6.47,6.47,0,0,0,2.84-.66,5.81,5.81,0,0,0,2.74-3.19,5.51,5.51,0,0,1,1.24-1.81c-6.14,4.07-11.26,4.71-13.38,4.78A5.45,5.45,0,0,0,184,48.51Z"/><path class="cls-10" d="M65,59.85a11.43,11.43,0,0,1-4.56-5,17.14,17.14,0,0,1-1.58-7.64,17,17,0,0,1,1.58-7.59,11.37,11.37,0,0,1,4.56-5A13.69,13.69,0,0,1,72,33a15,15,0,0,1,5,.82,12.11,12.11,0,0,1,4.09,2.36,1.9,1.9,0,0,1,.75,1.58,1.84,1.84,0,0,1-.4,1.21,1.18,1.18,0,0,1-1,.5,2,2,0,0,1-1.31-.52,13.89,13.89,0,0,0-3.47-2,10.29,10.29,0,0,0-3.55-.57,8.2,8.2,0,0,0-6.7,2.81Q63.08,42,63.08,47.25t2.34,8.13a8.21,8.21,0,0,0,6.7,2.82,9.83,9.83,0,0,0,3.47-.59,16.64,16.64,0,0,0,3.55-2,2.64,2.64,0,0,1,1.31-.51,1.17,1.17,0,0,1,1,.49,1.86,1.86,0,0,1,.4,1.21,1.93,1.93,0,0,1-.75,1.59A12.11,12.11,0,0,1,77,60.76a15,15,0,0,1-5,.81A13.68,13.68,0,0,1,65,59.85Z"/><path class="cls-10" d="M89.2,60.3a8.3,8.3,0,0,1-3.33-3.51A11.42,11.42,0,0,1,84.7,51.5a11.55,11.55,0,0,1,1.17-5.34,8.3,8.3,0,0,1,3.33-3.51,10.84,10.84,0,0,1,10,0,8.3,8.3,0,0,1,3.33,3.51,11.55,11.55,0,0,1,1.17,5.34,11.42,11.42,0,0,1-1.17,5.29,8.3,8.3,0,0,1-3.33,3.51,10.84,10.84,0,0,1-10,0Zm9.08-3.69a8,8,0,0,0,1.41-5.11,8,8,0,0,0-1.43-5.1,5.53,5.53,0,0,0-8.09,0,8,8,0,0,0-1.43,5.1,8,8,0,0,0,1.41,5.11,5.6,5.6,0,0,0,8.13,0Z"/><path class="cls-10" d="M111.57,60.3a8.3,8.3,0,0,1-3.33-3.51,11.42,11.42,0,0,1-1.17-5.29,11.55,11.55,0,0,1,1.17-5.34,8.3,8.3,0,0,1,3.33-3.51,10.84,10.84,0,0,1,10,0,8.3,8.3,0,0,1,3.33,3.51,11.55,11.55,0,0,1,1.17,5.34,11.42,11.42,0,0,1-1.17,5.29,8.3,8.3,0,0,1-3.33,3.51,10.84,10.84,0,0,1-10,0Zm9.08-3.69a8,8,0,0,0,1.41-5.11,8,8,0,0,0-1.43-5.1,5.53,5.53,0,0,0-8.09,0,8,8,0,0,0-1.43,5.1,8,8,0,0,0,1.41,5.11,5.6,5.6,0,0,0,8.13,0Z"/><path class="cls-10" d="M131.12,61a1.77,1.77,0,0,1-.57-1.43V35a1.81,1.81,0,0,1,.57-1.45,2.16,2.16,0,0,1,1.45-.5,2.08,2.08,0,0,1,1.43.5,1.83,1.83,0,0,1,.55,1.45V59.55A1.79,1.79,0,0,1,134,61a2.16,2.16,0,0,1-1.43.47A2.25,2.25,0,0,1,131.12,61Z"/><path class="cls-10" d="M144.25,60.74a2.45,2.45,0,0,1-.73-1.83,2.49,2.49,0,0,1,.73-1.84,2.45,2.45,0,0,1,1.81-.73,2.38,2.38,0,0,1,1.78.73,2.51,2.51,0,0,1,.71,1.84,2.47,2.47,0,0,1-.71,1.83,2.44,2.44,0,0,1-1.78.71A2.51,2.51,0,0,1,144.25,60.74Zm1-7.38a1.38,1.38,0,0,1-.39-1l-1.19-16.82a2.09,2.09,0,0,1,.57-1.8,2.47,2.47,0,0,1,1.85-.7,2.4,2.4,0,0,1,1.8.7,2.13,2.13,0,0,1,.58,1.8l-1.19,16.82a1.53,1.53,0,0,1-.36,1,1.07,1.07,0,0,1-.83.34A1.15,1.15,0,0,1,145.22,53.36Z"/><path class="cls-10" d="M154.48,60.74a2.45,2.45,0,0,1-.73-1.83,2.49,2.49,0,0,1,.73-1.84,2.45,2.45,0,0,1,1.81-.73,2.37,2.37,0,0,1,1.78.73,2.52,2.52,0,0,1,.72,1.84,2.48,2.48,0,0,1-.72,1.83,2.43,2.43,0,0,1-1.78.71A2.51,2.51,0,0,1,154.48,60.74Zm1-7.38a1.42,1.42,0,0,1-.39-1l-1.19-16.82a2.09,2.09,0,0,1,.57-1.8,2.49,2.49,0,0,1,1.85-.7,2.4,2.4,0,0,1,1.8.7,2.07,2.07,0,0,1,.58,1.8l-1.19,16.82a1.53,1.53,0,0,1-.36,1,1.07,1.07,0,0,1-.83.34A1.15,1.15,0,0,1,155.45,53.36Z"/></g></g></svg>