<svg id="Layer_1" data-name="Layer 1" xmlns="http://www.w3.org/2000/svg" width="100" height="100" viewBox="0 0 100 100"><defs><style>.cls-1{fill:#276eb6;}.cls-2{fill:#fff;}</style></defs><circle class="cls-1" cx="50" cy="48.58" r="38.35" transform="translate(-5.53 90.72) rotate(-81.37)"/><rect class="cls-2" x="29.14" y="41.34" width="11.04" height="22.72" rx="2.22"/><path class="cls-2" d="M67.74,46.5h-.39a3.52,3.52,0,0,0,0-7H56.08c1.39-2.19,3.27-5.68,3.27-8.53,0-4.51-2.47-7-4.08-7.31A2.77,2.77,0,0,0,52,25.57c-.47,1.36.36,3.94,0,4.86-.5,1.42-3,3.32-6.35,7.64a13,13,0,0,0-2.58,8.43V61.87a2.2,2.2,0,0,0,2.19,2.19H66.23a2.55,2.55,0,1,0,0-5.09h.36a3.12,3.12,0,0,0,0-6.24h1.15a3.12,3.12,0,1,0,0-6.23Z"/></svg>